# XSI Wavefront OBJ Export v3.0
# File Created: Mon Dec 21 20:48:51 2020
# XSI Version: 13.0.114.0
mtllib corner_i_cap.mtl

o corner_i_cap
# Hierarchy (from self to top father)
g corner_i_cap

#begin 10 vertices
v 0.500000 10.000000 0.544514
v 0.500000 10.000000 5.000000
v 5.000000 10.000000 5.000000
v 5.000000 10.000000 -5.000000
v -0.544514 10.000000 -0.500000
v -5.000000 10.000000 -0.500000
v -5.000000 10.000000 -5.000000
v 5.000000 0.000000 -5.000000
v -5.000000 0.000000 -5.000000
v 5.000000 0.000000 5.000000
#end 10 vertices

#begin 19 normals
vn 0.000000 1.000000 0.000000
vn 0.000000 1.000000 0.000000
vn 0.000000 1.000000 0.000000
vn 0.000000 1.000000 0.000000
vn 0.000000 1.000000 0.000000
vn 0.000000 1.000000 0.000000
vn 0.000000 1.000000 0.000000
vn 0.000000 1.000000 0.000000
vn 0.000000 1.000000 0.000000
vn 0.000000 1.000000 0.000000
vn 0.000000 1.000000 0.000000
vn -0.000000 0.000000 -1.000000
vn -0.000000 0.000000 -1.000000
vn -0.000000 0.000000 -1.000000
vn 0.000000 0.000000 -1.000000
vn 1.000000 0.000000 -0.000000
vn 1.000000 0.000000 -0.000000
vn 1.000000 0.000000 -0.000000
vn 1.000000 0.000000 -0.000000
#end 19 vertex normals

#begin texture vertices
vt 0.555822 1.000000 0.000000
vt 1.000000 1.000000 0.000000
vt 1.000000 1.000000 0.000000
vt 0.436975 1.000000 0.000000
vt 0.436975 1.000000 0.000000
vt 0.000000 1.000000 0.000000
vt 0.000000 1.000000 0.000000
vt 0.436975 1.000000 0.000000
vt 0.000000 1.000000 0.000000
vt 1.000000 1.000000 0.000000
#end 10 texture vertices

#begin 5 faces
usemtl scene_material
f 1/1/1 2/2/2 3/3/3 4/4/4 
usemtl scene_material
f 1/1/5 4/4/6 5/5/7 
usemtl scene_material
f 6/6/8 5/5/9 4/4/10 7/7/11 
usemtl scene_material
f 7/7/12 4/4/13 8/8/14 9/9/15 
usemtl scene_material
f 4/4/16 3/3/17 10/10/18 8/8/19 
#end 5 faces
