# XSI Wavefront OBJ Export v3.0
# File Created: Wed Dec 23 19:44:33 2020
# XSI Version: 13.0.114.0
mtllib cylinder.mtl

o polymsh_extracted
# Hierarchy (from self to top father)
g polymsh_extracted

#begin 48 vertices
v -0.697227 0.049683 -1.207632
v -0.986028 0.049683 -0.986028
v 0.986028 12.943536 0.986028
v 0.697227 12.943536 1.207632
v -1.207632 0.049683 -0.697227
v 1.207632 12.943536 0.697227
v -1.346939 0.049683 -0.360911
v 0.360911 12.943536 1.346939
v -1.394454 0.049683 -0.000000
v 1.346939 12.943536 0.360911
v -1.346939 0.049683 0.360911
v -0.000000 12.943536 1.394454
v -1.207632 0.049683 0.697227
v 1.394454 12.943536 0.000000
v -0.986028 0.049683 0.986028
v -0.360911 12.943536 1.346939
v -0.697227 0.049683 1.207632
v 1.346939 12.943536 -0.360911
v -0.360911 0.049683 1.346939
v -0.697227 12.943536 1.207632
v -0.000000 0.049683 1.394454
v 1.207632 12.943536 -0.697227
v 0.360911 0.049683 1.346939
v -0.986028 12.943536 0.986028
v 0.697227 0.049683 1.207632
v 0.986028 12.943536 -0.986028
v 0.986028 0.049683 0.986028
v -1.207632 12.943536 0.697227
v 1.207632 0.049683 0.697227
v 0.697227 12.943536 -1.207632
v 1.346939 0.049683 0.360911
v -1.346939 12.943536 0.360911
v 1.394454 0.049683 0.000000
v 0.360911 12.943536 -1.346939
v 1.346939 0.049683 -0.360911
v -1.394454 12.943536 -0.000000
v 1.207632 0.049683 -0.697227
v 0.000000 12.943536 -1.394454
v 0.986028 0.049683 -0.986028
v -1.346939 12.943536 -0.360911
v 0.697227 0.049683 -1.207632
v -0.360911 12.943536 -1.346939
v 0.360911 0.049683 -1.346939
v -1.207632 12.943536 -0.697227
v 0.000000 0.049683 -1.394454
v -0.986028 12.943536 -0.986028
v -0.360911 0.049683 -1.346939
v -0.697227 12.943536 -1.207632
#end 48 vertices

#begin 96 normals
vn 0.707107 0.000000 0.707107
vn 0.500000 0.000000 0.866025
vn 0.500000 0.000000 0.866025
vn 0.707107 0.000000 0.707107
vn 0.866025 0.000000 0.500000
vn 0.707107 0.000000 0.707107
vn 0.707107 0.000000 0.707107
vn 0.866025 0.000000 0.500000
vn 0.500000 0.000000 0.866025
vn 0.258819 0.000000 0.965926
vn 0.258819 0.000000 0.965926
vn 0.500000 0.000000 0.866025
vn 0.965926 0.000000 0.258819
vn 0.866025 0.000000 0.500000
vn 0.866025 0.000000 0.500000
vn 0.965926 0.000000 0.258819
vn 0.258819 0.000000 0.965926
vn 0.000000 0.000000 1.000000
vn 0.000000 0.000000 1.000000
vn 0.258819 0.000000 0.965926
vn 1.000000 0.000000 0.000000
vn 0.965926 0.000000 0.258819
vn 0.965926 0.000000 0.258819
vn 1.000000 0.000000 0.000000
vn 0.000000 0.000000 1.000000
vn -0.258819 0.000000 0.965926
vn -0.258819 0.000000 0.965926
vn 0.000000 0.000000 1.000000
vn 0.965926 0.000000 -0.258819
vn 1.000000 0.000000 0.000000
vn 1.000000 0.000000 0.000000
vn 0.965926 0.000000 -0.258819
vn -0.258819 0.000000 0.965926
vn -0.500000 0.000000 0.866025
vn -0.500000 0.000000 0.866025
vn -0.258819 0.000000 0.965926
vn 0.866025 0.000000 -0.500000
vn 0.965926 0.000000 -0.258819
vn 0.965926 0.000000 -0.258819
vn 0.866025 0.000000 -0.500000
vn -0.500000 0.000000 0.866025
vn -0.707107 0.000000 0.707107
vn -0.707107 0.000000 0.707107
vn -0.500000 0.000000 0.866025
vn 0.707107 0.000000 -0.707107
vn 0.866025 0.000000 -0.500000
vn 0.866025 0.000000 -0.500000
vn 0.707107 0.000000 -0.707107
vn -0.707107 0.000000 0.707107
vn -0.866025 0.000000 0.500000
vn -0.866025 0.000000 0.500000
vn -0.707107 0.000000 0.707107
vn 0.500000 0.000000 -0.866025
vn 0.707107 0.000000 -0.707107
vn 0.707107 0.000000 -0.707107
vn 0.500000 0.000000 -0.866025
vn -0.866025 0.000000 0.500000
vn -0.965926 0.000000 0.258819
vn -0.965926 0.000000 0.258819
vn -0.866025 0.000000 0.500000
vn 0.258819 0.000000 -0.965926
vn 0.500000 0.000000 -0.866025
vn 0.500000 0.000000 -0.866025
vn 0.258819 0.000000 -0.965926
vn -0.965926 0.000000 0.258819
vn -1.000000 0.000000 0.000000
vn -1.000000 0.000000 0.000000
vn -0.965926 0.000000 0.258819
vn 0.000000 0.000000 -1.000000
vn 0.258819 0.000000 -0.965926
vn 0.258819 0.000000 -0.965926
vn 0.000000 0.000000 -1.000000
vn -1.000000 0.000000 0.000000
vn -0.965926 0.000000 -0.258819
vn -0.965926 0.000000 -0.258819
vn -1.000000 0.000000 0.000000
vn -0.258819 0.000000 -0.965926
vn 0.000000 0.000000 -1.000000
vn 0.000000 0.000000 -1.000000
vn -0.258819 0.000000 -0.965926
vn -0.965926 0.000000 -0.258819
vn -0.866025 0.000000 -0.500000
vn -0.866025 0.000000 -0.500000
vn -0.965926 0.000000 -0.258819
vn -0.500000 0.000000 -0.866025
vn -0.258819 0.000000 -0.965926
vn -0.258819 0.000000 -0.965926
vn -0.500000 0.000000 -0.866025
vn -0.866025 0.000000 -0.500000
vn -0.707107 0.000000 -0.707107
vn -0.707107 0.000000 -0.707107
vn -0.866025 0.000000 -0.500000
vn -0.707107 0.000000 -0.707107
vn -0.500000 0.000000 -0.866025
vn -0.500000 0.000000 -0.866025
vn -0.707107 0.000000 -0.707107
#end 96 vertex normals

#begin texture vertices
vt 0.333333 0.000000 0.000000
vt 0.375000 0.000000 0.000000
vt 0.875000 1.000000 0.000000
vt 0.833333 1.000000 0.000000
vt 0.416667 0.000000 0.000000
vt 0.916667 1.000000 0.000000
vt 0.458333 0.000000 0.000000
vt 0.791667 1.000000 0.000000
vt 0.500000 0.000000 0.000000
vt 0.958333 1.000000 0.000000
vt 0.541667 0.000000 0.000000
vt 0.750000 1.000000 0.000000
vt 0.583333 -0.000000 0.000000
vt 1.000000 1.000000 0.000000
vt -0.000000 1.000000 0.000000
vt 0.625000 -0.000000 0.000000
vt 0.708333 1.000000 0.000000
vt 0.666667 -0.000000 0.000000
vt 0.041667 1.000000 0.000000
vt 0.708333 -0.000000 0.000000
vt 0.666667 1.000000 0.000000
vt 0.750000 -0.000000 0.000000
vt 0.083333 1.000000 0.000000
vt 0.791667 -0.000000 0.000000
vt 0.625000 1.000000 0.000000
vt 0.833333 -0.000000 0.000000
vt 0.125000 1.000000 0.000000
vt 0.875000 -0.000000 0.000000
vt 0.583333 1.000000 0.000000
vt 0.916667 -0.000000 0.000000
vt 0.166667 1.000000 0.000000
vt 0.958333 -0.000000 0.000000
vt 0.541667 1.000000 0.000000
vt -0.000000 -0.000000 0.000000
vt 1.000000 -0.000000 0.000000
vt 0.208333 1.000000 0.000000
vt 0.041667 0.000000 0.000000
vt 0.500000 1.000000 0.000000
vt 0.083333 0.000000 0.000000
vt 0.250000 1.000000 0.000000
vt 0.125000 0.000000 0.000000
vt 0.458333 1.000000 0.000000
vt 0.166667 0.000000 0.000000
vt 0.291667 1.000000 0.000000
vt 0.208333 -0.000000 0.000000
vt 0.416667 1.000000 0.000000
vt 0.250000 -0.000000 0.000000
vt 0.375000 1.000000 0.000000
vt 0.291667 0.000000 0.000000
vt 0.333333 1.000000 0.000000
#end 50 texture vertices

#begin 24 faces
usemtl scene_material
f 27/28/4 3/3/1 4/4/2 25/26/3 
usemtl scene_material
f 29/30/8 6/6/5 3/3/6 27/28/7 
usemtl scene_material
f 25/26/12 4/4/9 8/8/10 23/24/11 
usemtl scene_material
f 31/32/16 10/10/13 6/6/14 29/30/15 
usemtl scene_material
f 23/24/20 8/8/17 12/12/18 21/22/19 
usemtl scene_material
f 33/35/24 14/14/21 10/10/22 31/32/23 
usemtl scene_material
f 21/22/28 12/12/25 16/17/26 19/20/27 
usemtl scene_material
f 35/37/32 18/19/29 14/15/30 33/34/31 
usemtl scene_material
f 19/20/36 16/17/33 20/21/34 17/18/35 
usemtl scene_material
f 37/39/40 22/23/37 18/19/38 35/37/39 
usemtl scene_material
f 17/18/44 20/21/41 24/25/42 15/16/43 
usemtl scene_material
f 39/41/48 26/27/45 22/23/46 37/39/47 
usemtl scene_material
f 15/16/52 24/25/49 28/29/50 13/13/51 
usemtl scene_material
f 41/43/56 30/31/53 26/27/54 39/41/55 
usemtl scene_material
f 13/13/60 28/29/57 32/33/58 11/11/59 
usemtl scene_material
f 43/45/64 34/36/61 30/31/62 41/43/63 
usemtl scene_material
f 11/11/68 32/33/65 36/38/66 9/9/67 
usemtl scene_material
f 45/47/72 38/40/69 34/36/70 43/45/71 
usemtl scene_material
f 9/9/76 36/38/73 40/42/74 7/7/75 
usemtl scene_material
f 47/49/80 42/44/77 38/40/78 45/47/79 
usemtl scene_material
f 7/7/84 40/42/81 44/46/82 5/5/83 
usemtl scene_material
f 1/1/88 48/50/85 42/44/86 47/49/87 
usemtl scene_material
f 5/5/92 44/46/89 46/48/90 2/2/91 
usemtl scene_material
f 2/2/96 46/48/93 48/50/94 1/1/95 
#end 24 faces
