# XSI Wavefront OBJ Export v3.0
# File Created: Tue Dec 15 21:21:06 2020
# XSI Version: 13.0.114.0
mtllib gate_l.mtl

o gate_l
# Hierarchy (from self to top father)
g gate_l

#begin 43 vertices
v -0.500000 0.000000 -5.000000
v 0.500000 1.848017 -0.571018
v -0.500000 6.134979 -5.000000
v 0.500000 4.907984 0.428982
v -0.437934 0.000000 0.500000
v -0.500000 6.134979 0.437934
v -0.500000 1.226996 -5.000000
v -0.500000 1.848017 -5.000000
v -0.500000 4.286963 -5.000000
v -0.500000 4.907984 -5.000000
v -0.437934 1.226996 0.500000
v -0.437934 1.848017 -0.500000
v -0.437934 4.286963 -0.500000
v -0.437934 4.907984 0.500000
v 0.500000 0.000000 -5.000000
v 0.500000 4.286963 -0.571018
v 0.500000 6.134979 -5.000000
v 0.500000 1.226996 0.428982
v 0.500000 0.000000 0.437934
v 0.437934 6.134979 0.500000
v 0.500000 1.226996 -5.000000
v 0.500000 1.848017 -5.000000
v 0.500000 4.286963 -5.000000
v 0.500000 4.907984 -5.000000
v -0.500000 0.000000 0.437934
v -0.500000 1.226996 0.428982
v -0.500000 1.848017 -0.571018
v -0.500000 4.286963 -0.571018
v -0.500000 4.907984 0.428982
v -0.437934 6.134979 0.500000
v 0.437934 1.226996 0.500000
v 0.437934 0.000000 0.500000
v 0.437934 1.848017 -0.500000
v 0.437934 4.286963 -0.500000
v 0.437934 4.907984 0.500000
v 0.500000 6.134979 0.437934
v 0.000000 6.134979 0.500000
v 0.000000 6.134979 -5.000000
v 0.000000 4.907984 0.500000
v 0.000000 4.286963 -0.500000
v 0.000000 1.848017 -0.500000
v 0.000000 0.000000 0.500000
v 0.000000 1.226996 0.500000
#end 43 vertices

#begin 130 normals
vn 0.000000 1.000000 0.000000
vn 0.000000 1.000000 0.000000
vn 0.000000 1.000000 0.000000
vn 0.000000 1.000000 0.000000
vn -1.000000 0.000000 0.000000
vn -1.000000 0.000000 0.000000
vn -1.000000 0.000000 -0.000000
vn -1.000000 0.000000 -0.000000
vn -1.000000 0.000000 -0.000000
vn -1.000000 0.000000 0.000000
vn -1.000000 0.000000 0.000000
vn -1.000000 0.000000 0.000000
vn -1.000000 0.000000 -0.000000
vn -1.000000 0.000000 0.000000
vn -1.000000 0.000000 0.000000
vn -1.000000 0.000000 0.000000
vn -1.000000 0.000000 0.000000
vn -1.000000 0.000000 0.000000
vn -1.000000 0.000000 0.000000
vn -1.000000 0.000000 0.000000
vn -1.000000 0.000000 0.000000
vn -1.000000 0.000000 0.000000
vn -1.000000 0.000000 0.000000
vn -1.000000 0.000000 0.000000
vn 0.000000 0.000000 1.000000
vn 0.000000 0.000000 1.000000
vn 0.000000 0.000000 1.000000
vn 0.731272 -0.002488 0.682082
vn 1.000000 0.000000 -0.000000
vn 0.731272 -0.002488 0.682082
vn 1.000000 0.000000 0.000000
vn 1.000000 0.000000 0.000000
vn 1.000000 0.000000 0.000000
vn 1.000000 0.000000 -0.000000
vn 1.000000 0.000000 -0.000000
vn 1.000000 0.000000 -0.000000
vn 1.000000 0.000000 0.000000
vn 1.000000 0.000000 -0.000000
vn 1.000000 0.000000 -0.000000
vn 1.000000 0.000000 -0.000000
vn 1.000000 0.000000 -0.000000
vn 1.000000 0.000000 -0.000000
vn 1.000000 0.000000 -0.000000
vn 1.000000 0.000000 -0.000000
vn 1.000000 0.000000 -0.000000
vn 1.000000 0.000000 -0.000000
vn 1.000000 0.000000 -0.000000
vn 1.000000 0.000000 -0.000000
vn 0.000000 -0.000000 1.000000
vn 0.000000 -0.000000 1.000000
vn 0.000000 0.000000 1.000000
vn 0.000000 0.000000 1.000000
vn 0.000000 0.849514 0.527566
vn 0.000000 0.849514 0.527566
vn 0.000000 0.849514 0.527566
vn 0.000000 0.849514 0.527566
vn 0.000000 -0.000000 1.000000
vn 0.000000 -0.000000 1.000000
vn 0.000000 0.000000 1.000000
vn 0.000000 0.000000 1.000000
vn 0.000000 -0.849514 0.527566
vn 0.000000 -0.849514 0.527566
vn 0.000000 -0.849514 0.527566
vn 0.000000 -0.849514 0.527566
vn 0.000000 0.000000 1.000000
vn 0.000000 1.000000 0.000000
vn 1.000000 0.000000 -0.000000
vn 0.000000 1.000000 0.000000
vn -0.731272 0.002488 0.682082
vn -0.731272 0.002488 0.682082
vn -0.731272 0.002488 0.682082
vn -0.731272 0.002488 0.682082
vn -0.516797 0.727276 0.451653
vn -0.516797 0.727276 0.451653
vn -0.516797 0.727276 0.451653
vn -0.516797 0.727276 0.451653
vn -0.752970 0.000000 0.658055
vn -0.752970 0.000000 0.658055
vn -0.752970 0.000000 0.658055
vn -0.752970 0.000000 0.658055
vn -0.516797 -0.727276 0.451653
vn -0.516797 -0.727276 0.451653
vn -0.516797 -0.727276 0.451653
vn -0.516797 -0.727276 0.451653
vn -0.731272 -0.002488 0.682082
vn -0.731272 -0.002488 0.682082
vn -0.731272 -0.002488 0.682082
vn -0.731272 -0.002488 0.682082
vn 0.731272 0.002488 0.682082
vn 0.731272 0.002488 0.682082
vn 0.731272 0.002488 0.682082
vn 0.731272 0.002488 0.682082
vn 0.516797 0.727276 0.451653
vn 0.516797 0.727276 0.451653
vn 0.516797 0.727276 0.451653
vn 0.516797 0.727276 0.451653
vn 0.752970 0.000000 0.658055
vn 0.752970 0.000000 0.658055
vn 0.752970 0.000000 0.658055
vn 0.752970 0.000000 0.658055
vn 0.516797 -0.727276 0.451653
vn 0.516797 -0.727276 0.451653
vn 0.516797 -0.727276 0.451653
vn 0.516797 -0.727276 0.451653
vn 0.731272 -0.002488 0.682082
vn 0.731272 -0.002488 0.682082
vn 0.000000 0.000000 1.000000
vn 0.000000 1.000000 0.000000
vn 0.000000 1.000000 0.000000
vn 0.000000 -0.849514 0.527566
vn 0.000000 0.000000 1.000000
vn 0.000000 -0.000000 1.000000
vn 0.000000 -0.849514 0.527566
vn 0.000000 0.849514 0.527566
vn 0.000000 -0.000000 1.000000
vn 0.000000 -0.000000 1.000000
vn 0.000000 -0.000000 1.000000
vn 0.000000 0.849514 0.527566
vn 0.000000 1.000000 0.000000
vn 0.000000 1.000000 0.000000
vn 0.000000 0.000000 1.000000
vn 0.000000 0.000000 1.000000
vn 0.000000 0.000000 1.000000
vn 0.000000 0.000000 1.000000
vn 0.000000 0.849514 0.527566
vn 0.000000 0.849514 0.527566
vn 0.000000 0.000000 1.000000
vn 0.000000 0.000000 1.000000
vn 0.000000 -0.849514 0.527566
vn 0.000000 -0.849514 0.527566
#end 130 vertex normals

#begin texture vertices
vt 0.006626 0.007752 0.000000
vt 0.795301 0.708563 0.000000
vt 0.592174 0.171846 0.000000
vt 0.007393 0.557064 0.000000
vt 0.011450 0.623839 0.000000
vt 0.475899 0.695345 0.000000
vt 0.502562 0.445805 0.000000
vt 0.988677 0.623454 0.000000
vt 0.390052 0.624076 0.000000
vt 0.494293 0.556384 0.000000
vt 0.006779 0.117614 0.000000
vt 0.006857 0.173219 0.000000
vt 0.007162 0.391597 0.000000
vt 0.007239 0.447201 0.000000
vt 0.901062 0.629121 0.000000
vt 0.798406 0.616271 0.000000
vt 0.573244 0.615505 0.000000
vt 0.473683 0.628302 0.000000
vt 0.988781 0.006487 0.000000
vt 0.576367 0.709295 0.000000
vt 0.592115 0.390224 0.000000
vt 0.011450 0.693461 0.000000
vt 0.988631 0.555800 0.000000
vt 0.898410 0.694685 0.000000
vt 0.502652 0.116217 0.000000
vt 0.501880 0.006354 0.000000
vt 0.988228 0.700484 0.000000
vt 0.393064 0.687064 0.000000
vt 0.988751 0.116350 0.000000
vt 0.988735 0.171954 0.000000
vt 0.988676 0.390332 0.000000
vt 0.988661 0.445937 0.000000
vt 0.988228 0.616816 0.000000
vt 0.493526 0.007072 0.000000
vt 0.492878 0.116936 0.000000
vt 0.898410 0.622615 0.000000
vt 0.403418 0.172666 0.000000
vt 0.795301 0.608738 0.000000
vt 0.403723 0.391043 0.000000
vt 0.576367 0.608005 0.000000
vt 0.493338 0.446523 0.000000
vt 0.475899 0.621955 0.000000
vt 0.393064 0.630236 0.000000
vt 0.901062 0.688179 0.000000
vt 0.988677 0.693846 0.000000
vt 0.798406 0.701029 0.000000
vt 0.573244 0.701795 0.000000
vt 0.473683 0.688999 0.000000
vt 0.501730 0.555667 0.000000
vt 0.390052 0.693224 0.000000
vt 0.387492 0.658650 0.000000
vt 0.011428 0.658650 0.000000
vt 0.474202 0.658650 0.000000
vt 0.574758 0.658650 0.000000
vt 0.798280 0.658650 0.000000
vt 0.990070 0.658650 0.000000
vt 0.899812 0.658650 0.000000
#end 57 texture vertices

#begin 32 faces
usemtl scene_material
f 3/5/4 6/9/3 30/43/66 37/51/108 38/52/109 
usemtl scene_material
f 1/1/8 25/34/7 26/35/13 7/11/9 
usemtl scene_material
f 27/37/14 8/12/10 7/11/18 26/35/17 
usemtl scene_material
f 28/39/15 9/13/11 8/12/20 27/37/19 
usemtl scene_material
f 29/41/16 10/14/12 9/13/22 28/39/21 
usemtl scene_material
f 6/10/6 3/4/5 10/14/24 29/41/23 
usemtl scene_material
f 14/18/27 39/53/111 37/51/107 30/43/65 
usemtl scene_material
f 15/19/32 21/29/33 18/25/37 19/26/31 
usemtl scene_material
f 2/3/38 18/25/41 21/29/42 22/30/34 
usemtl scene_material
f 16/21/39 2/3/43 22/30/44 23/31/35 
usemtl scene_material
f 4/7/40 16/21/45 23/31/46 24/32/36 
usemtl scene_material
f 4/7/47 24/32/48 17/23/29 36/49/67 
usemtl scene_material
f 11/15/49 5/8/50 42/56/116 43/57/117 
usemtl scene_material
f 12/16/53 11/15/54 43/57/118 41/55/114 
usemtl scene_material
f 13/17/57 12/16/58 41/55/115 40/54/112 
usemtl scene_material
f 34/47/61 35/48/62 39/53/110 40/54/113 
usemtl scene_material
f 5/8/69 11/15/70 26/36/71 25/33/72 
usemtl scene_material
f 11/15/73 12/16/74 27/38/75 26/36/76 
usemtl scene_material
f 12/16/77 13/17/78 28/40/79 27/38/80 
usemtl scene_material
f 13/17/81 14/18/82 29/42/83 28/40/84 
usemtl scene_material
f 14/18/85 30/43/86 6/9/87 29/42/88 
usemtl scene_material
f 31/44/89 32/45/90 19/27/91 18/24/92 
usemtl scene_material
f 33/46/93 31/44/94 18/24/95 2/2/96 
usemtl scene_material
f 34/47/97 33/46/98 2/2/99 16/20/100 
usemtl scene_material
f 35/48/101 34/47/102 16/20/103 4/6/104 
usemtl scene_material
f 20/28/105 35/48/106 4/6/30 36/50/28 
usemtl scene_material
f 20/28/2 36/50/68 17/22/1 38/52/120 37/51/119 
usemtl scene_material
f 35/48/26 20/28/25 37/51/122 39/53/121 
usemtl scene_material
f 32/45/51 31/44/52 43/57/124 42/56/123 
usemtl scene_material
f 31/44/55 33/46/56 41/55/126 43/57/125 
usemtl scene_material
f 33/46/59 34/47/60 40/54/128 41/55/127 
usemtl scene_material
f 14/18/63 13/17/64 40/54/130 39/53/129 
#end 32 faces
