# XSI Wavefront OBJ Export v3.0
# File Created: Tue Dec 15 21:21:41 2020
# XSI Version: 13.0.114.0
mtllib wall.mtl

o wall
# Hierarchy (from self to top father)
g wall

#begin 12 vertices
v -5.000000 0.500000 -0.000000
v -5.000000 0.000000 0.000000
v 5.000000 0.500000 -0.000000
v 5.000000 0.000000 0.000000
v 5.000000 1.000000 -2.000000
v -5.000000 1.000000 -2.000000
v 5.000000 5.000000 -2.000000
v -5.000000 5.000000 -2.000000
v 5.000000 7.000000 -0.500000
v -5.000000 7.000000 -0.500000
v 5.000000 10.000000 -0.500000
v -5.000000 10.000000 -0.500000
#end 12 vertices

#begin 20 normals
vn 0.000000 0.000000 1.000000
vn 0.000000 0.000000 1.000000
vn 0.000000 0.000000 1.000000
vn 0.000000 0.000000 1.000000
vn 0.000000 0.970142 0.242536
vn 0.000000 0.970142 0.242536
vn 0.000000 0.970142 0.242536
vn 0.000000 0.970142 0.242536
vn 0.000000 0.000000 1.000000
vn 0.000000 0.000000 1.000000
vn 0.000000 0.000000 1.000000
vn 0.000000 0.000000 1.000000
vn 0.000000 -0.600000 0.800000
vn 0.000000 -0.600000 0.800000
vn 0.000000 -0.600000 0.800000
vn 0.000000 -0.600000 0.800000
vn 0.000000 -0.000000 1.000000
vn 0.000000 -0.000000 1.000000
vn 0.000000 -0.000000 1.000000
vn 0.000000 -0.000000 1.000000
#end 20 vertex normals

#begin texture vertices
vt 0.000000 0.041454 0.000000
vt 0.000000 0.000000 0.000000
vt 1.000000 0.041454 0.000000
vt 1.000000 0.000000 0.000000
vt 1.000000 0.212373 0.000000
vt 0.000000 0.212373 0.000000
vt 1.000000 0.544006 0.000000
vt 0.000000 0.544006 0.000000
vt 1.000000 0.751276 0.000000
vt 0.000000 0.751276 0.000000
vt 1.000000 1.000000 0.000000
vt 0.000000 1.000000 0.000000
#end 12 texture vertices

#begin 5 faces
usemtl scene_material
f 1/1/1 2/2/2 4/4/3 3/3/4 
usemtl scene_material
f 1/1/5 3/3/6 5/5/7 6/6/8 
usemtl scene_material
f 6/6/9 5/5/10 7/7/11 8/8/12 
usemtl scene_material
f 8/8/13 7/7/14 9/9/15 10/10/16 
usemtl scene_material
f 10/10/17 9/9/18 11/11/19 12/12/20 
#end 5 faces
